<svg width="121" height="45" viewBox="0 0 121 45" fill="none" xmlns="http://www.w3.org/2000/svg">
<rect y="19.5" width="7" height="14" rx="1.25" fill="#FD5F69"/>
<rect x="9" y="11.5" width="7" height="22" rx="1.25" fill="#FFBE02"/>
<rect x="18" y="24.5" width="7" height="9" rx="1.25" fill="#83BF6E"/>
<path d="M40.48 33.21C38.94 33.21 37.56 32.96 36.34 32.46C35.12 31.96 34.14 31.22 33.4 30.24C32.68 29.26 32.3 28.08 32.26 26.7H37.72C37.8 27.48 38.07 28.08 38.53 28.5C38.99 28.9 39.59 29.1 40.33 29.1C41.09 29.1 41.69 28.93 42.13 28.59C42.57 28.23 42.79 27.74 42.79 27.12C42.79 26.6 42.61 26.17 42.25 25.83C41.91 25.49 41.48 25.21 40.96 24.99C40.46 24.77 39.74 24.52 38.8 24.24C37.44 23.82 36.33 23.4 35.47 22.98C34.61 22.56 33.87 21.94 33.25 21.12C32.63 20.3 32.32 19.23 32.32 17.91C32.32 15.95 33.03 14.42 34.45 13.32C35.87 12.2 37.72 11.64 40 11.64C42.32 11.64 44.19 12.2 45.61 13.32C47.03 14.42 47.79 15.96 47.89 17.94H42.34C42.3 17.26 42.05 16.73 41.59 16.35C41.13 15.95 40.54 15.75 39.82 15.75C39.2 15.75 38.7 15.92 38.32 16.26C37.94 16.58 37.75 17.05 37.75 17.67C37.75 18.35 38.07 18.88 38.71 19.26C39.35 19.64 40.35 20.05 41.71 20.49C43.07 20.95 44.17 21.39 45.01 21.81C45.87 22.23 46.61 22.84 47.23 23.64C47.85 24.44 48.16 25.47 48.16 26.73C48.16 27.93 47.85 29.02 47.23 30C46.63 30.98 45.75 31.76 44.59 32.34C43.43 32.92 42.06 33.21 40.48 33.21ZM67.097 24.36C67.097 24.84 67.067 25.34 67.007 25.86H55.397C55.477 26.9 55.807 27.7 56.387 28.26C56.987 28.8 57.717 29.07 58.577 29.07C59.857 29.07 60.747 28.53 61.247 27.45H66.707C66.427 28.55 65.917 29.54 65.177 30.42C64.457 31.3 63.547 31.99 62.447 32.49C61.347 32.99 60.117 33.24 58.757 33.24C57.117 33.24 55.657 32.89 54.377 32.19C53.097 31.49 52.097 30.49 51.377 29.19C50.657 27.89 50.297 26.37 50.297 24.63C50.297 22.89 50.647 21.37 51.347 20.07C52.067 18.77 53.067 17.77 54.347 17.07C55.627 16.37 57.097 16.02 58.757 16.02C60.377 16.02 61.817 16.36 63.077 17.04C64.337 17.72 65.317 18.69 66.017 19.95C66.737 21.21 67.097 22.68 67.097 24.36ZM61.847 23.01C61.847 22.13 61.547 21.43 60.947 20.91C60.347 20.39 59.597 20.13 58.697 20.13C57.837 20.13 57.107 20.38 56.507 20.88C55.927 21.38 55.567 22.09 55.427 23.01H61.847ZM76.6134 33.24C75.1534 33.24 73.8534 32.99 72.7134 32.49C71.5734 31.99 70.6734 31.31 70.0134 30.45C69.3534 29.57 68.9834 28.59 68.9034 27.51H73.9734C74.0334 28.09 74.3034 28.56 74.7834 28.92C75.2634 29.28 75.8534 29.46 76.5534 29.46C77.1934 29.46 77.6834 29.34 78.0234 29.1C78.3834 28.84 78.5634 28.51 78.5634 28.11C78.5634 27.63 78.3134 27.28 77.8134 27.06C77.3134 26.82 76.5034 26.56 75.3834 26.28C74.1834 26 73.1834 25.71 72.3834 25.41C71.5834 25.09 70.8934 24.6 70.3134 23.94C69.7334 23.26 69.4434 22.35 69.4434 21.21C69.4434 20.25 69.7034 19.38 70.2234 18.6C70.7634 17.8 71.5434 17.17 72.5634 16.71C73.6034 16.25 74.8334 16.02 76.2534 16.02C78.3534 16.02 80.0034 16.54 81.2034 17.58C82.4234 18.62 83.1234 20 83.3034 21.72H78.5634C78.4834 21.14 78.2234 20.68 77.7834 20.34C77.3634 20 76.8034 19.83 76.1034 19.83C75.5034 19.83 75.0434 19.95 74.7234 20.19C74.4034 20.41 74.2434 20.72 74.2434 21.12C74.2434 21.6 74.4934 21.96 74.9934 22.2C75.5134 22.44 76.3134 22.68 77.3934 22.92C78.6334 23.24 79.6434 23.56 80.4234 23.88C81.2034 24.18 81.8834 24.68 82.4634 25.38C83.0634 26.06 83.3734 26.98 83.3934 28.14C83.3934 29.12 83.1134 30 82.5534 30.78C82.0134 31.54 81.2234 32.14 80.1834 32.58C79.1634 33.02 77.9734 33.24 76.6134 33.24ZM93.3419 33.24C91.8819 33.24 90.5819 32.99 89.4419 32.49C88.3019 31.99 87.4019 31.31 86.7419 30.45C86.0819 29.57 85.7119 28.59 85.6319 27.51H90.7019C90.7619 28.09 91.0319 28.56 91.5119 28.92C91.9919 29.28 92.5819 29.46 93.2819 29.46C93.9219 29.46 94.4119 29.34 94.7519 29.1C95.1119 28.84 95.2919 28.51 95.2919 28.11C95.2919 27.63 95.0419 27.28 94.5419 27.06C94.0419 26.82 93.2319 26.56 92.1119 26.28C90.9119 26 89.9119 25.71 89.1119 25.41C88.3119 25.09 87.6219 24.6 87.0419 23.94C86.4619 23.26 86.1719 22.35 86.1719 21.21C86.1719 20.25 86.4319 19.38 86.9519 18.6C87.4919 17.8 88.2719 17.17 89.2919 16.71C90.3319 16.25 91.5619 16.02 92.9819 16.02C95.0819 16.02 96.7319 16.54 97.9319 17.58C99.1519 18.62 99.8519 20 100.032 21.72H95.2919C95.2119 21.14 94.9519 20.68 94.5119 20.34C94.0919 20 93.5319 19.83 92.8319 19.83C92.2319 19.83 91.7719 19.95 91.4519 20.19C91.1319 20.41 90.9719 20.72 90.9719 21.12C90.9719 21.6 91.2219 21.96 91.7219 22.2C92.2419 22.44 93.0419 22.68 94.1219 22.92C95.3619 23.24 96.3719 23.56 97.1519 23.88C97.9319 24.18 98.6119 24.68 99.1919 25.38C99.7919 26.06 100.102 26.98 100.122 28.14C100.122 29.12 99.8419 30 99.2819 30.78C98.7419 31.54 97.9519 32.14 96.9119 32.58C95.8919 33.02 94.7019 33.24 93.3419 33.24ZM110.88 33.24C109.24 33.24 107.76 32.89 106.44 32.19C105.14 31.49 104.11 30.49 103.35 29.19C102.61 27.89 102.24 26.37 102.24 24.63C102.24 22.91 102.62 21.4 103.38 20.1C104.14 18.78 105.18 17.77 106.5 17.07C107.82 16.37 109.3 16.02 110.94 16.02C112.58 16.02 114.06 16.37 115.38 17.07C116.7 17.77 117.74 18.78 118.5 20.1C119.26 21.4 119.64 22.91 119.64 24.63C119.64 26.35 119.25 27.87 118.47 29.19C117.71 30.49 116.66 31.49 115.32 32.19C114 32.89 112.52 33.24 110.88 33.24ZM110.88 28.8C111.86 28.8 112.69 28.44 113.37 27.72C114.07 27 114.42 25.97 114.42 24.63C114.42 23.29 114.08 22.26 113.4 21.54C112.74 20.82 111.92 20.46 110.94 20.46C109.94 20.46 109.11 20.82 108.45 21.54C107.79 22.24 107.46 23.27 107.46 24.63C107.46 25.97 107.78 27 108.42 27.72C109.08 28.44 109.9 28.8 110.88 28.8Z" fill="#302F33"/>
</svg>
